<svg width="12" height="15" viewBox="0 0 12 15" fill="none" xmlns="http://www.w3.org/2000/svg">
<path d="M10.4 4.56683C10.4 4.27503 10.2841 3.99528 10.0779 3.78893C9.87151 3.58266 9.59175 3.46676 9.29995 3.46676H8.16321C8.07809 3.05293 7.85291 2.68108 7.52559 2.41392C7.19835 2.14668 6.78894 2.00057 6.36643 2H5.63305C5.21053 2.00057 4.80112 2.14668 4.47388 2.41392C4.14657 2.68108 3.9214 3.05293 3.83626 3.46676H2.69952C2.35108 3.46611 2.02311 3.63087 1.81569 3.91079C1.6082 4.19071 1.546 4.5525 1.64806 4.88562C1.75005 5.21875 2.00419 5.48371 2.33283 5.59943V11.2553C2.33332 11.7181 2.5174 12.1618 2.84456 12.489C3.1718 12.8162 3.61551 13.0002 4.0783 13.0007H7.92122C8.384 13.0002 8.82772 12.8162 9.15495 12.489C9.4821 12.1618 9.66618 11.7181 9.66668 11.2553V5.59943C9.88039 5.5238 10.0656 5.38409 10.1969 5.19926C10.3282 5.01436 10.3992 4.79353 10.4001 4.56679L10.4 4.56683ZM5.63305 2.73338H6.36643C6.59315 2.73428 6.81398 2.80525 6.99889 2.93653C7.18371 3.06782 7.32343 3.25304 7.39907 3.46677H4.60049C4.67612 3.25306 4.81583 3.06783 5.00066 2.93653C5.18556 2.80525 5.40639 2.73428 5.63313 2.73338H5.63305ZM7.9212 12.2673H4.07828C3.80996 12.267 3.55272 12.1604 3.3629 11.9706C3.17317 11.7808 3.0665 11.5236 3.06619 11.2552V5.66688H8.93324V11.2552C8.93291 11.5236 8.82626 11.7808 8.63653 11.9706C8.44672 12.1604 8.18947 12.267 7.92115 12.2673H7.9212ZM9.29997 4.93352H2.69954C2.5685 4.93352 2.44745 4.86363 2.38197 4.75018C2.31649 4.63673 2.31649 4.49693 2.38197 4.38349C2.44745 4.27005 2.5685 4.20014 2.69954 4.20014H9.29997C9.43102 4.20014 9.55207 4.27004 9.61755 4.38349C9.68303 4.49693 9.68303 4.63674 9.61755 4.75018C9.55207 4.86362 9.43101 4.93352 9.29997 4.93352V4.93352Z" fill="black"/>
<path d="M4.89965 6.76697C4.80241 6.76697 4.7091 6.8056 4.64035 6.87436C4.57159 6.94311 4.53296 7.03642 4.53296 7.13366V10.8006C4.53296 10.9316 4.60286 11.0527 4.7163 11.1181C4.82975 11.1836 4.96955 11.1836 5.08299 11.1181C5.19644 11.0527 5.26634 10.9316 5.26634 10.8006V7.13366C5.26634 7.03642 5.22771 6.94311 5.15895 6.87436C5.0902 6.8056 4.99689 6.76697 4.89965 6.76697Z" fill="black"/>
<path d="M7.09978 6.76697C7.00255 6.76697 6.90923 6.8056 6.84048 6.87436C6.77173 6.94311 6.73309 7.03642 6.73309 7.13366V10.8006C6.73309 10.9316 6.80299 11.0527 6.91644 11.1181C7.02988 11.1836 7.16969 11.1836 7.28313 11.1181C7.39657 11.0527 7.46647 10.9316 7.46647 10.8006V7.13366C7.46647 7.03642 7.42784 6.94311 7.35909 6.87436C7.29033 6.8056 7.19702 6.76697 7.09978 6.76697Z" fill="black"/>
</svg>
