<svg width="30" height="30" viewBox="0 0 30 30" fill="none" xmlns="http://www.w3.org/2000/svg">
<circle cx="15" cy="15" r="15" fill="#F57067"/>
<path d="M20.1994 11.2667C20.1994 10.8953 20.0519 10.5393 19.7894 10.2767C19.5268 10.0142 19.1708 9.86667 18.7994 9.86667H17.3527C17.2444 9.34 16.9578 8.86677 16.5413 8.52677C16.1248 8.18667 15.6038 8.00072 15.0661 8H14.1327C13.595 8.00073 13.074 8.18667 12.6575 8.52677C12.241 8.86677 11.9544 9.34 11.8461 9.86667H10.3994C9.95597 9.86583 9.53858 10.0755 9.27461 10.4318C9.01055 10.788 8.93138 11.2484 9.06127 11.6724C9.19107 12.0963 9.5145 12.4335 9.93274 12.5808V19.7787C9.93337 20.3676 10.1676 20.9323 10.584 21.3488C11.0004 21.7651 11.5651 21.9994 12.1541 22H17.0448C17.6337 21.9994 18.1984 21.7651 18.6149 21.3488C19.0312 20.9323 19.2655 20.3676 19.2661 19.7787V12.5808C19.5381 12.4846 19.7738 12.3067 19.9409 12.0715C20.108 11.8362 20.1983 11.5552 20.1995 11.2666L20.1994 11.2667ZM14.1327 8.93333H15.0661C15.3546 8.93448 15.6357 9.02479 15.871 9.19188C16.1062 9.35896 16.284 9.59468 16.3803 9.86668H12.8187C12.9149 9.5947 13.0927 9.35897 13.3279 9.19188C13.5633 9.02479 13.8443 8.93448 14.1329 8.93333H14.1327ZM17.0447 21.0667H12.1541C11.8126 21.0663 11.4852 20.9305 11.2436 20.6891C11.0022 20.4475 10.8664 20.1201 10.866 19.7786V12.6666H18.3327V19.7786C18.3323 20.1201 18.1966 20.4475 17.9551 20.6891C17.7136 20.9305 17.3862 21.0663 17.0447 21.0667H17.0447ZM18.7994 11.7333H10.3994C10.2327 11.7333 10.0786 11.6444 9.99527 11.5C9.91194 11.3556 9.91194 11.1777 9.99527 11.0333C10.0786 10.889 10.2327 10.8 10.3994 10.8H18.7994C18.9662 10.8 19.1203 10.889 19.2036 11.0333C19.2869 11.1777 19.2869 11.3556 19.2036 11.5C19.1203 11.6444 18.9662 11.7333 18.7994 11.7333V11.7333Z" fill="black"/>
<path d="M13.1994 14.0667C13.0756 14.0667 12.9569 14.1159 12.8694 14.2034C12.7819 14.2909 12.7327 14.4096 12.7327 14.5334V19.2C12.7327 19.3668 12.8217 19.5209 12.9661 19.6042C13.1104 19.6875 13.2884 19.6875 13.4327 19.6042C13.5771 19.5209 13.6661 19.3668 13.6661 19.2V14.5334C13.6661 14.4096 13.6169 14.2909 13.5294 14.2034C13.4419 14.1159 13.3231 14.0667 13.1994 14.0667Z" fill="black"/>
<path d="M15.9994 14.0667C15.8756 14.0667 15.7569 14.1159 15.6694 14.2034C15.5819 14.2909 15.5327 14.4096 15.5327 14.5334V19.2C15.5327 19.3668 15.6217 19.5209 15.766 19.6042C15.9104 19.6875 16.0883 19.6875 16.2327 19.6042C16.3771 19.5209 16.466 19.3668 16.466 19.2V14.5334C16.466 14.4096 16.4169 14.2909 16.3294 14.2034C16.2419 14.1159 16.1231 14.0667 15.9994 14.0667Z" fill="black"/>
</svg>
