<svg width="16" height="16" viewBox="0 0 16 16" fill="none" xmlns="http://www.w3.org/2000/svg">
<path fill-rule="evenodd" clip-rule="evenodd" d="M12.8792 6.01177L10.4454 3.57802L2.2241 11.7993C1.97295 12.051 1.80924 12.3766 1.75706 12.7283L1.55539 14.1464L2.29685 14.8878L3.71659 14.6828C4.06842 14.6345 4.39474 14.4722 4.64558 14.2208L12.8792 6.01177ZM10.1384 2.80878C10.1491 2.79451 10.1609 2.78092 10.1736 2.76815L11.6408 1.28582C11.9101 1.01674 12.2753 0.865601 12.656 0.865601C13.0368 0.865601 13.402 1.01674 13.6713 1.28582L15.1588 2.77323C15.4278 3.04261 15.579 3.40778 15.579 3.78853C15.579 4.16927 15.4278 4.53445 15.1588 4.80382L13.7716 6.172C13.7539 6.20811 13.7305 6.24158 13.702 6.27104L5.18369 14.7589C4.81789 15.1343 4.34078 15.3818 3.82319 15.4645L1.0362 15.8656L0.980363 15.8453C0.925725 15.8451 0.871756 15.8332 0.822124 15.8104C0.772491 15.7876 0.728357 15.7543 0.69272 15.7129C0.657083 15.6715 0.630777 15.6229 0.61559 15.5704C0.600402 15.5179 0.59669 15.4628 0.604703 15.4087L1.00575 12.6217C1.08151 12.1073 1.31988 11.6305 1.68599 11.2612L10.1384 2.80878ZM13.4074 5.45869L10.9859 3.03721L12.2195 1.82393C12.345 1.69931 12.5147 1.62937 12.6916 1.62937C12.8685 1.62937 13.0382 1.69931 13.1637 1.82393L14.6206 3.30626C14.683 3.36808 14.7324 3.44163 14.7662 3.52266C14.7999 3.60368 14.8173 3.69059 14.8173 3.77837C14.8173 3.86615 14.7999 3.95306 14.7662 4.03409C14.7324 4.11512 14.683 4.18867 14.6206 4.25049L13.4074 5.45869ZM4.35248 12.2988C4.39873 12.318 4.44838 12.3276 4.49844 12.3271C4.54847 12.3273 4.59803 12.3176 4.64424 12.2984C4.69044 12.2792 4.73234 12.251 4.7675 12.2154L10.7577 6.22517C10.825 6.153 10.8616 6.05754 10.8599 5.9589C10.8581 5.86027 10.8182 5.76616 10.7484 5.6964C10.6787 5.62664 10.5845 5.58668 10.4859 5.58494C10.3873 5.5832 10.2918 5.61981 10.2196 5.68707L4.22939 11.6773C4.15809 11.7487 4.11804 11.8455 4.11804 11.9464C4.11804 12.0473 4.15809 12.144 4.22939 12.2154C4.26437 12.2512 4.30624 12.2796 4.35248 12.2988Z" fill="black"/>
</svg>
