<svg width="23" height="23" viewBox="0 0 23 23" fill="none" xmlns="http://www.w3.org/2000/svg">
<path d="M16.5557 15.0805L22.7469 21.2718L21.8967 22.1221L15.7054 15.9308C14.1191 17.3199 12.0411 18.1614 9.76722 18.1614C4.78609 18.1614 0.747559 14.1235 0.747559 9.14173C0.747559 4.15996 4.78546 0.12207 9.76722 0.12207C14.749 0.12207 18.7869 4.15996 18.7869 9.14173C18.7863 11.4163 17.9442 13.4936 16.5557 15.0805ZM9.7666 1.32527C5.44924 1.32527 1.94951 4.825 1.94951 9.14236C1.94951 13.4597 5.44924 16.9594 9.7666 16.9594C14.084 16.9594 17.5837 13.4597 17.5837 9.14236C17.5837 4.825 14.084 1.32527 9.7666 1.32527Z" fill="black"/>
</svg>
